<?xml version="1.0" encoding="UTF-8"?>
<svg width="70px" height="40px" viewBox="0 0 70 40" version="1.1" xmlns="http://www.w3.org/2000/svg" xmlns:xlink="http://www.w3.org/1999/xlink">
    <!-- Generator: Sketch 43.1 (39012) - http://www.bohemiancoding.com/sketch -->
    <title>foxsports1-network-logo</title>
    <desc>Created with Sketch.</desc>
    <defs></defs>
    <g id="Page-1" stroke="none" stroke-width="1" fill="none" fill-rule="evenodd">
        <g id="foxsports1-network-logo" fill-rule="nonzero">
            <g id="2015_Fox_Sports_1_logo" transform="translate(16.000000, 10.000000)">
                <polygon id="path4" fill="#19315A" points="0.181441635 0.173483 38.8579615 0.173483 38.8579615 19.8465867 0.181441635 19.8465867 0.181441635 0.173483"></polygon>
                <path d="M4.60265135,3.55766667 C6.01595561,3.54373333 7.43006607,3.55563333 8.84417654,3.55151667 C11.1865226,3.55275 13.529272,3.54948333 15.8720221,3.55318333 C15.5162785,3.930251 15.1468374,4.293384 14.7858563,4.66512333 C14.2677524,5.22498733 13.7117771,5.747964 13.1932701,6.307008 C11.7364545,6.32258467 10.2788334,6.314388 8.8216153,6.31110467 C8.80872372,7.08245467 8.80670819,7.85544333 8.82281618,8.62679267 C10.2570705,8.625126 11.6917277,8.618596 13.1259821,8.63005933 C13.1167158,9.55510467 13.1320221,10.4801507 13.1183321,11.4047863 C13.0522596,11.4289663 12.9801433,11.416263 12.911654,11.419953 C11.3803058,11.4170863 9.8489573,11.420353 8.31760844,11.4182863 C8.26483151,11.419953 8.21245704,11.4236197 8.16008256,11.4297597 C8.39133613,11.6408357 8.58955325,11.8851103 8.81436038,12.103154 C8.81517178,13.56798 8.80832029,15.0332167 8.81757354,16.4980433 C7.4127293,16.50255 6.00788539,16.5021433 4.60344425,16.4984433 C4.60305478,12.184706 4.60464513,7.87137833 4.60263285,3.55764067 L4.60265135,3.55766667 Z" id="path6" fill="#FDFEFE"></path>
                <path d="M17.7877182,3.55766667 C20.2654313,3.54332333 22.7439536,3.55643333 25.222072,3.55110667 C25.2160287,4.14048 25.2341457,4.73190267 25.2136042,5.32004667 C24.8691417,5.65080067 24.5262909,5.984014 24.1814227,6.314358 C22.6545064,6.315158 21.1275897,6.314758 19.6006721,6.314358 C19.5519253,6.309028 19.5116355,6.32501133 19.4802124,6.36149133 C19.3762684,6.465595 19.2787718,6.576256 19.1720089,6.67749067 C19.1574945,7.187352 19.1711975,7.697623 19.1647517,8.20789433 C19.1413866,8.39151033 19.3351702,8.47839967 19.428233,8.606275 C20.8459701,8.606675 22.2633047,8.60710833 23.6810402,8.605875 C23.969906,8.883757 24.2390301,9.18213267 24.5270907,9.460425 C24.7696214,9.717815 25.0359283,9.95553167 25.2603304,10.2289053 C25.2639687,11.706438 25.2614339,13.1847897 25.2611418,14.6627317 C24.6636703,15.2779263 24.056932,15.8836933 23.4614744,16.500117 C20.4797574,16.500517 17.4980381,16.5025837 14.516321,16.4992837 C14.5191447,16.3140293 14.5191447,16.1291837 14.5170999,15.9443387 C15.2438961,15.19799 15.986405,14.466807 16.7019204,13.709392 C18.0197413,13.7016053 19.3379666,13.7036587 20.6553866,13.7085587 C20.6743183,13.6987253 20.7121907,13.6794587 20.7311273,13.6696227 C20.8382926,13.5483057 20.9527121,13.434775 21.0679379,13.321245 C21.0668344,12.804416 21.0671265,12.287997 21.0679379,11.771168 C21.0771977,11.6764917 20.9788981,11.629358 20.9297475,11.5641907 C20.8668984,11.515418 20.8229846,11.416233 20.7323346,11.426889 C19.3319233,11.423199 17.9311091,11.4297557 16.5306971,11.4236223 C16.0234696,10.873595 15.4824014,10.3559463 14.9771894,9.80469 C14.9642979,9.54689067 14.9864557,9.28745167 14.9651028,9.02965167 C14.9445548,8.80996867 14.9820254,8.59028533 14.96348,8.37101267 C14.9723437,7.72835767 14.9570342,7.084883 14.9723437,6.44345833 C15.3192239,6.06270133 15.6918879,5.70530667 16.0520628,5.33643633 C16.6261668,4.73927533 17.2196124,4.160968 17.7876734,3.55765933 L17.7877182,3.55766667 Z" id="path8" fill="#FDFEFE"></path>
                <path d="M27.1192344,6.25902967 C28.0039605,5.350788 28.9023812,4.45648133 29.7911381,3.55192867 C31.3398091,3.55561533 32.8888846,3.54290867 34.4371528,3.55848867 C34.4342318,7.87140667 34.4365037,12.1847347 34.4365037,16.4980627 C32.8527771,16.5062627 31.2690551,16.495996 29.6857342,16.5029793 C29.6760525,14.174585 29.6840789,11.846192 29.6813039,9.51820733 C29.6849423,9.22638933 29.6736605,8.93457267 29.6881392,8.64316433 C29.9060952,8.43741633 30.1091489,8.21609433 30.3238852,8.00747733 C30.3673953,7.96649167 30.404058,7.91853867 30.4370942,7.86853633 C29.3215185,7.87345633 28.2055408,7.871003 27.0899619,7.86976967 C27.0855316,7.39433633 27.0902855,6.91849333 27.0871382,6.44305967 C27.0923928,6.38199133 27.0726238,6.308217 27.1193671,6.25903433 L27.1192344,6.25902967 Z" id="path10" fill="#FDFEFE"></path>
            </g>
        </g>
    </g>
</svg>